# Blender 5.1.1
# www.blender.org
mtllib methane.mtl
o Methane
v -0.362063 0.000000 0.000000
v -0.161920 0.189989 0.261069
v -0.161920 0.307412 -0.099717
v -0.161920 0.000000 -0.322701
v -0.161920 -0.307412 -0.099717
v -0.161920 -0.189989 0.261069
v 0.161920 0.307412 0.099717
v 0.161920 0.189989 -0.261069
v 0.161920 -0.189989 -0.261069
v 0.161920 -0.307412 0.099717
v 0.161920 0.000000 0.322701
v 0.362063 0.000000 0.000000
v 0.289650 0.000000 0.000000
v 0.438328 0.141135 0.193937
v 0.438328 0.228363 -0.074076
v 0.438328 0.000000 -0.239721
v 0.438328 -0.228363 -0.074076
v 0.438328 -0.141135 0.193937
v 0.678895 0.228363 0.074076
v 0.678895 0.141135 -0.193937
v 0.678895 -0.141135 -0.193937
v 0.678895 -0.228363 0.074076
v 0.678895 0.000000 0.239721
v 0.827573 0.000000 0.000000
v -0.113776 0.000000 0.285253
v -0.346863 0.141135 0.360173
v -0.093333 0.228363 0.449637
v 0.063361 0.000000 0.504931
v -0.093333 -0.228363 0.449637
v -0.346863 -0.141135 0.360173
v -0.313781 0.228363 0.626155
v -0.060251 0.141135 0.715620
v -0.060251 -0.141135 0.715620
v -0.313781 -0.228363 0.626155
v -0.470476 0.000000 0.570862
v -0.293338 0.000000 0.790540
v -0.113776 0.268400 -0.094740
v -0.346863 0.292028 -0.252568
v -0.093333 0.347383 -0.364521
v 0.063361 0.475820 -0.168070
v -0.093333 0.499841 0.065296
v -0.346863 0.386251 0.013071
v -0.313781 0.514051 -0.423444
v -0.060251 0.627641 -0.371219
v -0.060251 0.721865 -0.105579
v -0.313781 0.666510 0.006374
v -0.470475 0.538072 -0.190078
v -0.293338 0.745493 -0.263408
v -0.113776 -0.179984 -0.220482
v -0.346863 -0.336893 -0.190034
v -0.093333 -0.461077 -0.204757
v 0.063361 -0.318460 -0.391204
v -0.093333 -0.106134 -0.491709
v -0.346863 -0.117528 -0.367378
v -0.313781 -0.572347 -0.341937
v -0.060251 -0.560953 -0.466268
v -0.060251 -0.341588 -0.643612
v -0.313781 -0.217404 -0.628889
v -0.470475 -0.360021 -0.442442
v -0.293338 -0.498497 -0.613164
vn -0.7941 0.5780 0.1881
vn -0.7936 -0.0000 0.6084
vn -0.7938 0.3571 -0.4923
vn -0.7938 -0.3571 -0.4923
vn -0.7941 -0.5780 0.1881
vn -0.1870 -0.0000 0.9824
vn -0.1872 0.9341 0.3040
vn -0.1871 0.5768 -0.7952
vn -0.1871 -0.5768 -0.7952
vn -0.1872 -0.9341 0.3040
vn 0.1871 0.5768 0.7952
vn 0.1872 0.9341 -0.3040
vn 0.1870 -0.0000 -0.9824
vn 0.1872 -0.9341 -0.3040
vn 0.1871 -0.5768 0.7952
vn 0.7938 0.3571 0.4923
vn 0.7941 0.5780 -0.1881
vn 0.7936 -0.0000 -0.6084
vn 0.7941 -0.5780 -0.1881
vn 0.7938 -0.3571 0.4923
vn 0.0882 0.5767 -0.8122
vn -0.3060 -0.0000 -0.9520
vn 0.7272 0.3570 -0.5863
vn 0.7272 -0.3570 -0.5863
vn 0.0882 -0.5767 -0.8122
vn -0.8625 -0.0000 -0.5060
vn -0.2231 0.9341 -0.2786
vn 0.8112 0.5781 0.0887
vn 0.8112 -0.5781 0.0887
vn -0.2231 -0.9341 -0.2786
vn -0.8112 0.5781 -0.0887
vn 0.2231 0.9341 0.2786
vn 0.8625 -0.0000 0.5060
vn 0.2231 -0.9341 0.2786
vn -0.8112 -0.5781 -0.0887
vn -0.7272 0.3570 0.5863
vn -0.0882 0.5767 0.8122
vn 0.3060 -0.0000 0.9520
vn -0.0882 -0.5767 0.8122
vn -0.7272 -0.3570 0.5863
vn 0.0882 -0.9578 -0.2737
vn -0.3064 -0.8971 0.3182
vn 0.7276 -0.6713 -0.1414
vn 0.7272 -0.4327 0.5328
vn 0.0882 -0.5718 0.8156
vn -0.8628 -0.4764 0.1690
vn -0.2229 -0.5735 -0.7883
vn 0.8107 -0.1094 -0.5751
vn 0.8108 0.2763 0.5160
vn -0.2228 0.0496 0.9736
vn -0.8108 -0.2763 -0.5160
vn 0.2228 -0.0496 -0.9736
vn 0.8628 0.4764 -0.1690
vn 0.2229 0.5735 0.7883
vn -0.8107 0.1094 0.5751
vn -0.7272 0.4327 -0.5328
vn -0.0882 0.5718 -0.8157
vn 0.3064 0.8971 -0.3182
vn -0.0882 0.9578 0.2737
vn -0.7276 0.6713 0.1414
vn 0.0881 0.0620 0.9942
vn -0.3062 0.5985 0.7403
vn 0.7270 0.0909 0.6806
vn 0.7275 0.6461 0.2308
vn 0.0883 0.9594 0.2679
vn -0.8627 0.3180 0.3933
vn -0.2229 -0.5504 0.8046
vn 0.8111 -0.5049 0.2954
vn 0.8109 0.3934 -0.4332
vn -0.2231 0.9009 -0.3723
vn -0.8109 -0.3934 0.4332
vn 0.2231 -0.9009 0.3723
vn 0.8627 -0.3180 -0.3933
vn 0.2229 0.5504 -0.8046
vn -0.8111 0.5049 -0.2954
vn -0.7275 -0.6461 -0.2308
vn -0.0883 -0.9594 -0.2679
vn 0.3062 -0.5985 -0.7403
vn -0.0881 -0.0620 -0.9942
vn -0.7270 -0.0909 -0.6806
vt 0.937500 0.923691
vt 0.062500 0.923691
s 1
usemtl Material.002
f 1/1/1 2/1/1 3/1/1
f 2/1/2 1/1/2 6/1/2
f 1/1/3 3/1/3 4/1/3
f 1/1/4 4/1/4 5/1/4
f 1/1/5 5/1/5 6/1/5
f 2/1/6 6/1/6 11/1/6
f 3/1/7 2/1/7 7/1/7
f 4/1/8 3/1/8 8/1/8
f 5/1/9 4/1/9 9/1/9
f 6/1/10 5/1/10 10/1/10
f 2/1/11 11/1/11 7/1/11
f 3/1/12 7/1/12 8/1/12
f 4/1/13 8/1/13 9/1/13
f 5/1/14 9/1/14 10/1/14
f 6/1/15 10/1/15 11/1/15
f 7/1/16 11/1/16 12/1/16
f 8/1/17 7/1/17 12/1/17
f 9/1/18 8/1/18 12/1/18
f 10/1/19 9/1/19 12/1/19
f 11/1/20 10/1/20 12/1/20
f 13/2/1 14/2/1 15/2/1
f 14/2/2 13/2/2 18/2/2
f 13/2/3 15/2/3 16/2/3
f 13/2/4 16/2/4 17/2/4
f 13/2/5 17/2/5 18/2/5
f 14/2/6 18/2/6 23/2/6
f 15/2/7 14/2/7 19/2/7
f 16/2/8 15/2/8 20/2/8
f 17/2/9 16/2/9 21/2/9
f 18/2/10 17/2/10 22/2/10
f 14/2/11 23/2/11 19/2/11
f 15/2/12 19/2/12 20/2/12
f 16/2/13 20/2/13 21/2/13
f 17/2/14 21/2/14 22/2/14
f 18/2/15 22/2/15 23/2/15
f 19/2/16 23/2/16 24/2/16
f 20/2/17 19/2/17 24/2/17
f 21/2/18 20/2/18 24/2/18
f 22/2/19 21/2/19 24/2/19
f 23/2/20 22/2/20 24/2/20
f 25/2/21 26/2/21 27/2/21
f 26/2/22 25/2/22 30/2/22
f 25/2/23 27/2/23 28/2/23
f 25/2/24 28/2/24 29/2/24
f 25/2/25 29/2/25 30/2/25
f 26/2/26 30/2/26 35/2/26
f 27/2/27 26/2/27 31/2/27
f 28/2/28 27/2/28 32/2/28
f 29/2/29 28/2/29 33/2/29
f 30/2/30 29/2/30 34/2/30
f 26/2/31 35/2/31 31/2/31
f 27/2/32 31/2/32 32/2/32
f 28/2/33 32/2/33 33/2/33
f 29/2/34 33/2/34 34/2/34
f 30/2/35 34/2/35 35/2/35
f 31/2/36 35/2/36 36/2/36
f 32/2/37 31/2/37 36/2/37
f 33/2/38 32/2/38 36/2/38
f 34/2/39 33/2/39 36/2/39
f 35/2/40 34/2/40 36/2/40
f 37/2/41 38/2/41 39/2/41
f 38/2/42 37/2/42 42/2/42
f 37/2/43 39/2/43 40/2/43
f 37/2/44 40/2/44 41/2/44
f 37/2/45 41/2/45 42/2/45
f 38/2/46 42/2/46 47/2/46
f 39/2/47 38/2/47 43/2/47
f 40/2/48 39/2/48 44/2/48
f 41/2/49 40/2/49 45/2/49
f 42/2/50 41/2/50 46/2/50
f 38/2/51 47/2/51 43/2/51
f 39/2/52 43/2/52 44/2/52
f 40/2/53 44/2/53 45/2/53
f 41/2/54 45/2/54 46/2/54
f 42/2/55 46/2/55 47/2/55
f 43/2/56 47/2/56 48/2/56
f 44/2/57 43/2/57 48/2/57
f 45/2/58 44/2/58 48/2/58
f 46/2/59 45/2/59 48/2/59
f 47/2/60 46/2/60 48/2/60
f 49/2/61 50/2/61 51/2/61
f 50/2/62 49/2/62 54/2/62
f 49/2/63 51/2/63 52/2/63
f 49/2/64 52/2/64 53/2/64
f 49/2/65 53/2/65 54/2/65
f 50/2/66 54/2/66 59/2/66
f 51/2/67 50/2/67 55/2/67
f 52/2/68 51/2/68 56/2/68
f 53/2/69 52/2/69 57/2/69
f 54/2/70 53/2/70 58/2/70
f 50/2/71 59/2/71 55/2/71
f 51/2/72 55/2/72 56/2/72
f 52/2/73 56/2/73 57/2/73
f 53/2/74 57/2/74 58/2/74
f 54/2/75 58/2/75 59/2/75
f 55/2/76 59/2/76 60/2/76
f 56/2/77 55/2/77 60/2/77
f 57/2/78 56/2/78 60/2/78
f 58/2/79 57/2/79 60/2/79
f 59/2/80 58/2/80 60/2/80
